<?xml version="1.0" encoding="UTF-8" standalone="no"?>
<svg
   xmlns="http://www.w3.org/2000/svg"
   viewBox="0 0 178.125 227.8125"
   version="1.1"
   id="svg3353">
  <metadata
     id="metadata3359">
    <rdf:RDF>
      <cc:Work
         rdf:about="">
        <dc:format>image/svg+xml</dc:format>
        <dc:type
           rdf:resource="http://purl.org/dc/dcmitype/StillImage" />
        <dc:title></dc:title>
      </cc:Work>
    </rdf:RDF>
  </metadata>
  <defs
     id="defs3357" />
  <g
     id="g3363">
    <path
       id="path3367"
       d="M 0,113.90625 0,0 l 89.0625,0 89.0625,0 0,113.90625 0,113.90625 -89.0625,0 -89.0625,0 0,-113.90625 z M 119.24129,211.319 c 16.14385,-4.43082 29.69088,-8.37626 30.10449,-8.76766 0.41362,-0.39142 1.35834,-7.41855 2.09939,-15.61587 0.74103,-8.19733 2.19571,-24.39641 3.23264,-35.99797 1.03691,-11.60156 2.3119,-25.73437 2.83332,-31.40625 0.52142,-5.67187 1.55978,-17.48437 2.30749,-26.25 0.74771,-8.765625 1.85057,-21 2.45082,-27.1875 0.60024,-6.1875 0.93283,-12.304688 0.73908,-13.59375 l -0.35227,-2.34375 -73.59375,0 -73.59375,0 0.0393,7.5 c 0.03478,6.637681 0.811016,16.269978 4.155262,51.5625 2.977215,31.41917 5.382622,58.7426 6.726397,76.40625 0.568785,7.47656 1.377349,14.50337 1.796809,15.61511 0.518007,1.37295 2.058952,2.3289 4.803694,2.98006 2.222572,0.52728 15.220727,4.11145 28.88479,7.9648 13.664062,3.85336 25.557019,7.04749 26.42879,7.09807 0.871773,0.0506 14.793648,-3.53324 30.937498,-7.96404 z M 81.5625,185.55563 c -8.318817,-2.50812 -12.849301,-3.76983 -23.4375,-6.52724 -2.320313,-0.60425 -5.106418,-1.4395 -6.191346,-1.8561 -2.094819,-0.80438 -1.933925,0.15355 -3.742916,-22.28458 l -0.626309,-7.76854 9.73341,0.26854 9.733411,0.26854 0.46875,6.72186 c 0.257812,3.69701 0.751733,7.00343 1.097603,7.3476 0.345869,0.34416 2.033369,0.97417 3.75,1.40003 1.71663,0.42586 5.567512,1.44366 8.557513,2.26178 2.990001,0.81811 6.449886,1.48748 7.688634,1.48748 1.238748,0 4.698633,-0.66937 7.688634,-1.48748 2.989997,-0.81812 6.757696,-1.81716 8.372666,-2.22009 4.62776,-1.15461 4.84105,-1.51468 5.44349,-9.18931 0.31341,-3.99265 0.78555,-9.26328 1.04919,-11.7125 l 0.47935,-4.45312 -32.017435,0 -32.017434,0 0.612575,-7.26563 c 0.336916,-3.99609 0.998548,-11.06249 1.470293,-15.70312 0.471745,-4.64062 1.32854,-14.34375 1.903988,-21.5625 C 52.154514,86.0625 52.913541,77.835937 53.265792,75 l 0.640458,-5.15625 37.605177,-0.244899 37.605183,-0.244899 0.59252,6.338649 c 0.3259,3.486256 1.00543,11.282217 1.51008,17.324356 0.50465,6.042134 1.17409,12.007833 1.48764,13.257093 0.31353,1.24927 0.15362,2.52878 -0.35536,2.84336 -1.29411,0.79979 -17.34288,1.07234 -18.56776,0.31532 -0.55251,-0.34146 -1.24681,-4.6814 -1.5429,-9.644302 -0.29609,-4.962891 -0.67844,-9.163545 -0.84968,-9.334775 -0.33898,-0.338985 -18.886043,-0.64662 -31.826107,-0.527892 L 71.473835,90 70.361359,101.01563 c -0.611862,6.05859 -1.189569,12.49218 -1.283793,14.29687 l -0.171316,3.28125 31.40625,0 31.40625,0 -0.16289,8.4375 c -0.16145,8.36269 -1.2709,22.0642 -3.27934,40.49923 l -1.04171,9.56173 -3.85179,0.92599 c -2.11847,0.5093 -5.4338,1.37449 -7.3674,1.92264 -1.93359,0.54817 -4.88671,1.38043 -6.5625,1.84947 -1.67578,0.46905 -6.21093,1.74058 -10.07812,2.82562 -10.346106,2.9029 -11.158827,2.94578 -17.8125,0.9397 z M 84.375,22.5 l 0,-14.0625 -4.6875,0 -4.6875,0 0,9.332166 0,9.332165 -6.328125,0.27721 -6.328125,0.277209 -0.285742,4.453125 -0.285741,4.453125 11.301366,0 11.301367,0 0,-14.0625 z m 31.875,11.12161 c 0,-2.29623 -1.33579,-4.433397 -6.09375,-9.749584 -3.35156,-3.744781 -6.09375,-7.062006 -6.09375,-7.37161 0,-0.309604 2.53125,-0.562916 5.625,-0.562916 l 5.625,0 0,-3.75 0,-3.75 -12.65625,0 -12.65625,0 0,3.552535 c 0,3.067042 0.843159,4.476363 6.169688,10.3125 l 6.169692,6.759965 -6.169692,0 -6.169688,0 0,3.75 0,3.75 13.125,0 13.125,0 0,-2.94089 z"
       style="fill:#fdfdfd" />
    <path
       id="path3365"
       d="m 61.875,212.18497 c -13.664063,-3.85335 -26.662218,-7.43752 -28.884789,-7.9648 -2.744743,-0.65116 -4.285688,-1.60711 -4.803695,-2.98006 -0.41946,-1.11174 -1.228024,-8.13855 -1.796809,-15.61511 C 25.045932,167.96135 22.640525,140.63792 19.66331,109.21875 16.319064,73.926228 15.542828,64.293931 15.508048,57.65625 l -0.0393,-7.5 73.59375,0 73.593752,0 0.35226,2.34375 c 0.19376,1.289062 -0.13883,7.40625 -0.73907,13.59375 -0.60025,6.1875 -1.70311,18.421875 -2.45082,27.1875 -0.74771,8.76563 -1.78608,20.57813 -2.30749,26.25 -0.52142,5.67188 -1.79641,19.80469 -2.83333,31.40625 -1.03692,11.60156 -2.4916,27.80064 -3.23264,35.99797 -0.74104,8.19732 -1.68576,15.22445 -2.09938,15.61587 -1.00237,0.94855 -59.013199,16.8494 -61.041991,16.7317 -0.87177,-0.0506 -12.764727,-3.24471 -26.428789,-7.09807 z m 37.5,-27.56904 c 3.86719,-1.08504 8.40234,-2.35657 10.07813,-2.82562 1.67578,-0.46904 4.6289,-1.3013 6.5625,-1.84947 1.93359,-0.54815 5.24892,-1.41334 7.3674,-1.92264 l 3.85178,-0.92599 1.04171,-9.56173 c 2.00844,-18.43503 3.11789,-32.13654 3.27934,-40.49923 l 0.16289,-8.4375 -31.40625,0 -31.40625,0 0.171316,-3.28125 c 0.09422,-1.80469 0.671931,-8.23828 1.283793,-14.29687 L 71.473835,90 79.565043,89.92576 c 12.940064,-0.118727 31.487127,0.188908 31.826107,0.527892 0.17124,0.17123 0.55359,4.371885 0.84968,9.334775 0.29609,4.962903 0.99039,9.302843 1.5429,9.644303 1.22488,0.75702 17.27365,0.48447 18.56776,-0.31533 0.50898,-0.31457 0.66889,-1.59408 0.35536,-2.84335 -0.31355,-1.24926 -0.98299,-7.21496 -1.48764,-13.257094 -0.50465,-6.042139 -1.18418,-13.838099 -1.51008,-17.324356 L 129.11661,69.353952 91.511427,69.598851 53.90625,69.84375 53.265792,75 c -0.352251,2.835937 -1.111278,11.0625 -1.686725,18.28125 -0.575448,7.21875 -1.432243,16.92188 -1.903988,21.5625 -0.471745,4.64063 -1.133377,11.70703 -1.470293,15.70312 l -0.612575,7.26563 32.017434,0 32.017435,0 -0.47935,4.45312 c -0.26364,2.44922 -0.73578,7.71985 -1.04919,11.7125 -0.60244,7.67463 -0.81573,8.0347 -5.44349,9.18931 -1.61497,0.40293 -5.382669,1.40197 -8.372666,2.22009 -2.990001,0.81811 -6.449886,1.48748 -7.688634,1.48748 -1.238748,0 -4.698633,-0.66937 -7.688634,-1.48748 -2.990001,-0.81812 -6.840883,-1.83592 -8.557514,-2.26178 -1.71663,-0.42586 -3.40413,-1.05587 -3.75,-1.40003 -0.345869,-0.34417 -0.83979,-3.65059 -1.097602,-7.3476 l -0.46875,-6.72186 -9.733411,-0.26854 -9.73341,-0.26854 0.626309,7.76854 c 1.808991,22.43813 1.648097,21.4802 3.742916,22.28458 1.084928,0.4166 3.871033,1.25185 6.191346,1.8561 10.588199,2.75741 15.118683,4.01912 23.4375,6.52724 6.653673,2.00608 7.466394,1.9632 17.8125,-0.9397 z M 62.058008,32.109375 62.34375,27.65625 68.671875,27.379041 75,27.101831 75,17.769666 75,8.4375 l 4.6875,0 4.6875,0 0,14.0625 0,14.0625 -11.301367,0 -11.301366,0 0.285741,-4.453125 z M 90,32.8125 l 0,-3.75 6.169688,0 6.169692,0 -6.169692,-6.759965 C 90.843159,16.466398 90,15.057077 90,11.990035 l 0,-3.552535 12.65625,0 12.65625,0 0,3.75 0,3.75 -5.625,0 c -3.09375,0 -5.625,0.253312 -5.625,0.562916 0,0.309604 2.74219,3.626829 6.09375,7.37161 4.75796,5.316187 6.09375,7.453354 6.09375,9.749584 l 0,2.94089 -13.125,0 -13.125,0 0,-3.75 z"
       style="fill:#929292" />
  </g>
</svg>
